<?xml version="1.0" encoding="UTF-8" standalone="no"?>
<!DOCTYPE svg PUBLIC "-//W3C//DTD SVG 1.1//EN" "http://www.w3.org/Graphics/SVG/1.1/DTD/svg11.dtd">
<svg width="100%" height="100%" viewBox="0 0 1039 1039" version="1.1" xmlns="http://www.w3.org/2000/svg" xmlns:xlink="http://www.w3.org/1999/xlink" xml:space="preserve" xmlns:serif="http://www.serif.com/" style="fill-rule:evenodd;clip-rule:evenodd;stroke-linecap:round;stroke-linejoin:round;stroke-miterlimit:1;">
    <g transform="matrix(1,0,0,1,-2219,-17295)">
        <g id="Original">
        </g>
        <g transform="matrix(0.247499,0,0,0.247499,1756.42,14935.3)">
            <g transform="matrix(1,0,0,1,2153,-308)">
                <rect x="-284" y="9842" width="4198" height="4198" style="fill:white;"/>
            </g>
            <g transform="matrix(1.25458,-2.78573e-16,2.78573e-16,1.25458,-1724.04,9094.01)">
                <path d="M4093.27,2319.55L3256.47,2319.55L4067.5,914.802L4485.9,1639.5L4093.27,2319.55ZM4588.1,1639.5L5006.5,914.802L5817.53,2319.55L4980.73,2319.55L4588.1,1639.5ZM4929.63,2408.06L5348.03,3132.75L3725.97,3132.75L4144.37,2408.06L4929.63,2408.06Z" style="stroke:black;stroke-width:31.75px;"/>
            </g>
        </g>
    </g>
</svg>
